<svg width="167" height="40" viewBox="0 0 167 40" fill="none" xmlns="http://www.w3.org/2000/svg">
<g id="GS-Logo">
<g id="writing">
<g id="greenstar">
<path id="Vector" d="M20.9129 23.151V19.7212H28.7277V26.7501C27.2319 27.7768 25.9097 28.4761 24.7583 28.8479C23.6096 29.2197 22.2433 29.4057 20.6677 29.4057C18.7257 29.4057 17.1418 29.0727 15.9188 28.4039C14.6958 27.7379 13.7454 26.7445 13.0733 25.4237C12.3984 24.1056 12.0624 22.5905 12.0624 20.8811C12.0624 19.083 12.4315 17.518 13.167 16.186C13.9024 14.854 14.9822 13.844 16.4036 13.1558C17.5137 12.623 19.004 12.3566 20.8798 12.3566C22.6896 12.3566 24.0421 12.5203 24.9373 12.8506C25.8353 13.1808 26.5791 13.6914 27.1713 14.3851C27.7635 15.0788 28.207 15.9585 28.5045 17.0212L23.6262 17.8981C23.4251 17.2765 23.0835 16.7993 22.6042 16.469C22.1249 16.1388 21.5106 15.9751 20.7669 15.9751C19.6568 15.9751 18.7753 16.3636 18.117 17.1378C17.4586 17.9148 17.1281 19.1413 17.1281 20.8201C17.1281 22.6044 17.4614 23.878 18.128 24.6439C18.7946 25.4098 19.7229 25.7899 20.9129 25.7899C21.4776 25.7899 22.0175 25.7067 22.5326 25.543C23.0449 25.3793 23.6344 25.0962 24.2955 24.6994V23.1482H20.9129V23.151Z" fill="#00FF00"/>
<path id="Vector_2" d="M31.7963 29.1226V12.6369H40.2254C41.7872 12.6369 42.9827 12.7729 43.8091 13.042C44.6355 13.3112 45.3021 13.8135 45.8062 14.5433C46.313 15.2731 46.5664 16.1638 46.5664 17.2155C46.5664 18.1312 46.3736 18.9193 45.9852 19.5825C45.5968 20.2457 45.0652 20.784 44.3876 21.1975C43.9551 21.4611 43.3629 21.6775 42.6109 21.8496C43.2141 22.0522 43.6521 22.2547 43.9275 22.4573C44.1121 22.5933 44.382 22.8818 44.7374 23.3231C45.09 23.767 45.3269 24.1084 45.4453 24.347L47.8941 29.1254H42.1811L39.4789 24.0862C39.1373 23.4341 38.8315 23.0095 38.5643 22.8153C38.2007 22.56 37.7875 22.4323 37.3248 22.4323H36.8785V29.1226H31.7963ZM36.8758 19.3161H39.0078C39.2392 19.3161 39.6855 19.2412 40.3466 19.0913C40.6826 19.0247 40.9553 18.8527 41.1674 18.5752C41.3795 18.2977 41.487 17.9786 41.487 17.6206C41.487 17.0879 41.3189 16.6799 40.9856 16.3941C40.6496 16.1083 40.0215 15.9668 39.0987 15.9668H36.8785V19.3161H36.8758Z" fill="#00FF00"/>
<path id="Vector_3" d="M49.5028 12.6369H63.0554V16.1583H54.5713V18.7778H62.4412V22.141H54.5713V25.3904H63.3006V29.1254H49.5028V12.6369Z" fill="#00FF00"/>
<path id="Vector_4" d="M66.0139 12.6369H79.5665V16.1583H71.0823V18.7778H78.9522V22.141H71.0823V25.3904H79.8116V29.1254H66.0139V12.6369Z" fill="#00FF00"/>
<path id="Vector_5" d="M82.5689 12.6369H87.2903L93.4523 21.758V12.6369H98.2205V29.1226H93.4523L87.3234 20.0709V29.1226H82.5689V12.6369Z" fill="#00FF00"/>
<path id="Vector_6" d="M100.697 23.6699L105.509 23.3675C105.614 24.1555 105.826 24.7549 106.146 25.1656C106.666 25.8343 107.41 26.1673 108.38 26.1673C109.101 26.1673 109.658 25.9981 110.049 25.6568C110.44 25.3154 110.636 24.9214 110.636 24.4691C110.636 24.0418 110.448 23.6588 110.076 23.3231C109.704 22.9845 108.842 22.6682 107.487 22.3685C105.27 21.8662 103.688 21.2003 102.744 20.3678C101.79 19.5353 101.314 18.4753 101.314 17.185C101.314 16.3386 101.556 15.5367 102.044 14.7847C102.531 14.0299 103.264 13.4388 104.242 13.0087C105.22 12.5786 106.561 12.3622 108.267 12.3622C110.357 12.3622 111.952 12.7534 113.051 13.536C114.15 14.3185 114.803 15.5672 115.01 17.2765L110.242 17.5568C110.115 16.8159 109.848 16.2748 109.443 15.9363C109.038 15.5977 108.476 15.4312 107.762 15.4312C107.176 15.4312 106.732 15.5561 106.435 15.8086C106.137 16.0611 105.989 16.3664 105.989 16.7243C105.989 16.9879 106.112 17.2238 106.358 17.4319C106.595 17.6484 107.162 17.8509 108.054 18.0396C110.264 18.5197 111.848 19.0053 112.803 19.4965C113.759 19.9876 114.456 20.5981 114.891 21.3251C115.327 22.0522 115.544 22.8652 115.544 23.7643C115.544 24.8215 115.255 25.7955 114.674 26.689C114.093 27.5825 113.283 28.2568 112.241 28.7175C111.2 29.1781 109.886 29.4084 108.3 29.4084C105.515 29.4084 103.589 28.8673 102.518 27.7879C101.446 26.7084 100.84 25.3349 100.697 23.6699Z" fill="#00FF00"/>
<path id="Vector_7" d="M116.941 12.6369H132.314V16.7077H127.158V29.1226H122.1V16.7077H116.944V12.6369H116.941Z" fill="#00FF00"/>
<path id="Vector_8" d="M143.112 26.4032H137.372L136.573 29.1254H131.408L137.559 12.6397H143.076L149.227 29.1254H143.933L143.112 26.4032ZM142.063 22.8375L140.256 16.9103L138.468 22.8375H142.063Z" fill="#00FF00"/>
<path id="Vector_9" d="M150.902 29.1226V12.6369H159.331C160.893 12.6369 162.089 12.7729 162.915 13.042C163.741 13.3112 164.408 13.8135 164.912 14.5433C165.419 15.2731 165.672 16.1638 165.672 17.2155C165.672 18.1312 165.48 18.9193 165.091 19.5825C164.703 20.2457 164.171 20.784 163.493 21.1975C163.061 21.4611 162.469 21.6775 161.717 21.8496C162.32 22.0522 162.758 22.2547 163.033 22.4573C163.218 22.5933 163.488 22.8818 163.843 23.3231C164.196 23.767 164.433 24.1084 164.551 24.347L167 29.1254H161.287L158.585 24.0862C158.243 23.4341 157.937 23.0095 157.67 22.8153C157.307 22.56 156.893 22.4323 156.431 22.4323H155.984V29.1226H150.902ZM155.982 19.3161H158.114C158.345 19.3161 158.791 19.2412 159.452 19.0913C159.788 19.0247 160.061 18.8527 160.273 18.5752C160.485 18.2977 160.593 17.9786 160.593 17.6206C160.593 17.0879 160.425 16.6799 160.091 16.3941C159.758 16.1083 159.127 15.9668 158.205 15.9668H155.982V19.3161Z" fill="#00FF00"/>
</g>
<g id="skippers">
<path id="Vector_10" d="M12.6794 37.5667L13.5526 37.489C13.5994 37.883 13.7041 38.1882 13.8694 38.4075C14.0347 38.6267 14.2716 38.8043 14.5773 38.9375C14.8831 39.0707 15.2302 39.1373 15.6158 39.1373C16.1667 39.1373 16.5965 39.0235 16.9022 38.7987C17.208 38.574 17.3595 38.2798 17.3595 37.9218C17.3595 37.711 17.3044 37.5278 17.1942 37.3696C17.084 37.2115 16.916 37.0838 16.6929 36.9839C16.4697 36.884 15.9877 36.7425 15.2439 36.5566C14.5828 36.3929 14.1146 36.2264 13.8336 36.0627C13.5526 35.8962 13.335 35.6853 13.1808 35.4328C13.0265 35.1775 12.9466 34.8889 12.9466 34.567C12.9466 33.9898 13.1697 33.5153 13.616 33.149C14.0622 32.7827 14.6655 32.5996 15.423 32.5996C15.9436 32.5996 16.3981 32.6856 16.7893 32.8576C17.1804 33.0297 17.4834 33.2767 17.6983 33.5985C17.9131 33.9204 18.0288 34.2978 18.0454 34.7335L17.1529 34.8029C17.106 34.3394 16.9408 33.9926 16.6543 33.7706C16.3678 33.5458 15.9684 33.4348 15.4505 33.4348C14.9272 33.4348 14.525 33.5319 14.2495 33.729C13.9741 33.926 13.8363 34.1785 13.8363 34.4921C13.8363 34.7807 13.9383 35.0054 14.1393 35.1636C14.3404 35.3218 14.7949 35.4827 15.5029 35.6464C16.1943 35.8074 16.6791 35.9461 16.96 36.0627C17.387 36.2458 17.7093 36.4844 17.9269 36.7814C18.1445 37.0783 18.2547 37.4335 18.2547 37.8442C18.2547 38.2521 18.139 38.6267 17.9104 38.9624C17.6818 39.2982 17.3705 39.5535 16.9738 39.7283C16.5799 39.9031 16.1034 39.9919 15.5497 39.9919C14.682 39.9919 13.9934 39.7755 13.4783 39.3398C12.9659 38.8986 12.6987 38.3103 12.6794 37.5667Z" fill="white"/>
<path id="Vector_11" d="M19.486 39.8671V32.7217H20.4115V36.2653L23.8934 32.7217H25.1495L22.2076 35.6187L25.2762 39.8643H24.0532L21.563 36.2514L20.4088 37.3891V39.8643H19.486V39.8671Z" fill="white"/>
<path id="Vector_12" d="M26.2237 39.8671V32.7217H27.1493V39.8671H26.2237Z" fill="white"/>
<path id="Vector_13" d="M28.7663 39.8671V32.7217H31.4052C32.0277 32.7217 32.485 32.7661 32.7797 32.8577C33.1847 32.9825 33.507 33.2101 33.7466 33.5459C33.9863 33.8816 34.1075 34.2923 34.1075 34.7779C34.1075 35.4217 33.9119 35.9461 33.518 36.3513C33.1241 36.7564 32.4464 36.9618 31.4851 36.9618H29.6891V39.8671H28.7663ZM29.6918 36.1182H31.5044C32.0746 36.1182 32.4933 36.01 32.7577 35.7935C33.0222 35.5771 33.1544 35.2524 33.1544 34.8168C33.1544 34.5337 33.0883 34.2923 32.9588 34.0897C32.8293 33.8872 32.6723 33.7512 32.4877 33.6763C32.3032 33.6014 31.9699 33.5653 31.4878 33.5653H29.6918V36.1182Z" fill="white"/>
<path id="Vector_14" d="M35.2946 39.8671V32.7217H37.9336C38.5561 32.7217 39.0134 32.7661 39.3081 32.8577C39.713 32.9825 40.0353 33.2101 40.275 33.5459C40.5146 33.8816 40.6358 34.2923 40.6358 34.7779C40.6358 35.4217 40.4402 35.9461 40.0463 36.3513C39.6552 36.7564 38.9748 36.9618 38.0134 36.9618H36.2174V39.8671H35.2946ZM36.2202 36.1182H38.0327C38.6029 36.1182 39.0216 36.01 39.2861 35.7935C39.5505 35.5771 39.6827 35.2524 39.6827 34.8168C39.6827 34.5337 39.6166 34.2923 39.4872 34.0897C39.3577 33.8872 39.2007 33.7512 39.0161 33.6763C38.8316 33.6014 38.4982 33.5653 38.0162 33.5653H36.2202V36.1182Z" fill="white"/>
<path id="Vector_15" d="M41.8451 39.8671V32.7217H46.9108V33.5653H42.7734V35.7491H46.6491V36.5927H42.7734V39.0235H47.0761V39.8671H41.8451Z" fill="white"/>
<path id="Vector_16" d="M48.3486 39.8671V32.7217H51.4558C52.1059 32.7217 52.5824 32.7883 52.8937 32.9215C53.2022 33.0547 53.4557 33.2767 53.654 33.5875C53.8523 33.8983 53.9515 34.2562 53.9515 34.6669C53.9515 35.2052 53.7834 35.6437 53.4474 35.9767C53.1113 36.3124 52.6238 36.5233 51.982 36.6149C52.2409 36.7453 52.4392 36.8785 52.5769 37.0117C52.8524 37.2837 53.0948 37.5889 53.3041 37.9219L54.5272 39.8671H53.362L52.4282 38.3825C52.0673 37.8026 51.7919 37.4085 51.6073 37.2087C51.4227 37.0062 51.2437 36.8702 51.0729 36.8008C50.8994 36.7314 50.6597 36.6954 50.3485 36.6954H49.2769V39.8671H48.3486ZM49.2769 35.874H51.2713C51.7065 35.874 52.037 35.8296 52.2629 35.7436C52.4888 35.6548 52.6678 35.5188 52.8001 35.3301C52.9323 35.1414 52.9984 34.9222 52.9984 34.6725C52.9984 34.3117 52.8717 34.0287 52.6183 33.8233C52.3648 33.618 51.9902 33.5126 51.4944 33.5126H49.2797V35.874H49.2769Z" fill="white"/>
<path id="Vector_17" d="M55.1029 37.5667L55.9762 37.489C56.023 37.883 56.1276 38.1882 56.2929 38.4075C56.4582 38.6267 56.6951 38.8043 57.0009 38.9375C57.3066 39.0707 57.6537 39.1373 58.0393 39.1373C58.5903 39.1373 59.02 39.0235 59.3257 38.7987C59.6315 38.574 59.783 38.2798 59.783 37.9218C59.783 37.711 59.7279 37.5278 59.6177 37.3696C59.5075 37.2115 59.3395 37.0838 59.1164 36.9839C58.8932 36.884 58.4112 36.7425 57.6674 36.5566C57.0063 36.3929 56.5381 36.2264 56.2571 36.0627C55.9761 35.8962 55.7585 35.6853 55.6043 35.4328C55.45 35.1775 55.3701 34.8889 55.3701 34.567C55.3701 33.9898 55.5933 33.5153 56.0395 33.149C56.4857 32.7827 57.089 32.5996 57.8465 32.5996C58.3671 32.5996 58.8217 32.6856 59.2128 32.8576C59.604 33.0297 59.9069 33.2767 60.1218 33.5985C60.3367 33.9204 60.4524 34.2978 60.4689 34.7335L59.5764 34.8029C59.5296 34.3394 59.3643 33.9926 59.0778 33.7706C58.7913 33.5458 58.3919 33.4348 57.874 33.4348C57.3507 33.4348 56.9485 33.5319 56.673 33.729C56.3976 33.926 56.2599 34.1785 56.2599 34.4921C56.2599 34.7807 56.3618 35.0054 56.5629 35.1636C56.764 35.3218 57.2185 35.4827 57.9264 35.6464C58.6178 35.8074 59.1026 35.9461 59.3836 36.0627C59.8105 36.2458 60.1328 36.4844 60.3505 36.7814C60.5681 37.0783 60.6782 37.4335 60.6782 37.8442C60.6782 38.2521 60.5625 38.6267 60.3339 38.9624C60.1053 39.2982 59.794 39.5535 59.3973 39.7283C59.0034 39.9031 58.5269 39.9919 57.9732 39.9919C57.1055 39.9919 56.4169 39.7755 55.9018 39.3398C55.3894 38.8986 55.125 38.3103 55.1029 37.5667Z" fill="white"/>
</g>
</g>
<path id="star1" opacity="0.5" d="M33.8595 3.37981L31.4437 3.0274L30.3639 0.82135L29.2841 3.0274L26.8683 3.37981L28.6175 5.09748L28.2043 7.51997L30.3639 6.37671L32.5235 7.51997L32.1103 5.09748L33.8595 3.37981Z" fill="white"/>
<path id="star2" opacity="0.5" d="M22.4086 2.55846L19.9928 2.20605L18.913 0L17.8332 2.20605L15.4174 2.55846L17.1666 4.27613L16.7534 6.69862L18.913 5.55536L21.0726 6.69862L20.6594 4.27613L22.4086 2.55846Z" fill="white"/>
<path id="star3" opacity="0.5" d="M11.2305 6.45168L8.81469 6.09927L7.73489 3.89322L6.6551 6.09927L4.23932 6.45168L5.98849 8.16935L5.5753 10.5918L7.73489 9.44858L9.8945 10.5918L9.48131 8.16935L11.2305 6.45168Z" fill="white"/>
<path id="star4" opacity="0.5" d="M6.99115 17.3987L4.57538 17.0463L3.49557 14.8402L2.41578 17.0463L0 17.3987L1.74917 19.1163L1.33599 21.5388L3.49557 20.3956L5.65518 21.5388L5.24199 19.1163L6.99115 17.3987Z" fill="white"/>
<path id="star5" opacity="0.5" d="M8.83677 28.6259L6.42099 28.2735L5.34117 26.0674L4.26137 28.2735L1.84558 28.6259L3.59476 30.3436L3.18157 32.7661L5.34117 31.6228L7.50079 32.7661L7.0876 30.3436L8.83677 28.6259Z" fill="white"/>
</g>
</svg>
