<svg id="svg" version="1.1" xmlns="http://www.w3.org/2000/svg" xmlns:xlink="http://www.w3.org/1999/xlink" width="400" height="443.13725490196083" viewBox="0, 0, 400,443.13725490196083"><g id="svgg"><path id="path0" d="M199.698 19.306 C 184.034 34.971,183.445 75.319,198.177 123.616 C 214.912 178.483,214.713 183.218,195.449 188.405 C 183.902 191.514,172.103 199.925,154.569 217.545 C 141.013 231.168,128.484 242.940,126.726 243.706 C 123.198 245.242,103.858 269.428,93.158 285.684 C 88.888 292.171,86.195 304.187,85.994 317.647 C 85.817 329.510,83.601 345.946,81.071 354.171 L 76.471 369.127 61.653 349.221 C 49.109 332.371,47.501 328.069,51.178 321.199 C 56.440 311.368,48.343 303.876,28.365 300.088 C 5.619 295.775,2.689 311.162,21.860 334.253 C 26.757 340.150,34.270 354.348,38.556 365.803 C 68.197 445.025,88.711 451.883,118.526 392.535 L 137.053 355.659 162.729 344.826 L 188.406 333.993 194.203 347.868 C 197.391 355.499,200.000 366.821,200.000 373.028 C 200.000 401.840,222.624 384.917,241.283 342.149 L 254.538 311.765 273.348 312.879 C 283.693 313.492,304.599 311.558,319.806 308.582 C 337.542 305.110,350.834 304.420,356.878 306.655 C 374.917 313.329,381.501 309.295,386.941 288.235 C 395.946 253.373,391.316 226.380,380.027 247.929 C 370.786 265.571,351.360 281.938,337.316 283.916 C 312.877 287.358,268.516 281.212,269.426 274.510 C 269.865 271.275,275.465 244.804,281.871 215.686 C 288.599 185.107,294.010 147.837,294.681 127.451 C 295.622 98.898,297.646 88.919,305.281 75.202 C 316.357 55.303,312.776 46.581,296.561 53.968 C 285.997 58.782,284.078 57.289,266.534 30.608 C 249.405 4.556,219.504 -0.500,199.698 19.306 M246.007 16.905 C 252.939 20.757,278.431 54.911,278.431 60.348 C 278.431 63.651,258.710 82.353,255.227 82.353 C 249.244 82.353,243.946 94.906,245.610 105.141 C 246.482 110.506,245.478 113.211,243.149 111.772 C 237.332 108.177,238.376 115.038,244.973 123.760 C 252.545 133.771,252.404 137.255,244.426 137.255 C 240.822 137.255,234.538 140.273,230.462 143.962 C 219.869 153.548,206.108 122.863,198.032 71.654 C 191.428 29.773,216.883 0.724,246.007 16.905 M288.631 147.970 C 287.540 149.061,283.791 147.096,280.299 143.604 C 276.807 140.112,270.546 137.255,266.387 137.255 C 255.467 137.255,256.950 133.192,273.529 117.680 L 288.235 103.922 289.425 124.954 C 290.079 136.523,289.722 146.880,288.631 147.970 M279.409 202.941 C 270.234 244.844,268.092 248.140,264.621 225.691 C 261.946 208.388,262.532 205.679,270.026 200.703 C 274.649 197.633,278.431 192.102,278.431 188.411 C 278.431 182.759,281.592 176.471,284.432 176.471 C 284.857 176.471,282.597 188.382,279.409 202.941 M259.209 266.667 C 261.154 266.667,262.745 269.520,262.745 273.006 C 262.745 277.667,260.408 278.720,253.922 276.982 C 249.069 275.681,239.466 274.593,232.583 274.563 L 220.069 274.510 230.381 258.759 L 240.693 243.009 248.183 254.838 C 252.302 261.344,257.264 266.667,259.209 266.667 M237.787 336.043 C 230.708 352.632,223.067 366.821,220.807 367.574 C 217.023 368.835,207.843 341.026,207.843 328.305 C 207.843 322.098,232.727 308.404,247.878 306.273 C 249.406 306.058,244.865 319.455,237.787 336.043 " stroke="none" fill="#000000" fill-rule="evenodd"></path></g></svg>